<svg width="83" height="73" viewBox="0 0 83 73" fill="none" xmlns="http://www.w3.org/2000/svg">
<g filter="url(#filter0_d)">
<path d="M35.25 0V7.73158L41.5 12.2816V6.84211H72.75V58.1579H57.125V65H79V0H35.25ZM27.4375 10.2632L4 27.3684V65H50.875V27.3684L27.4375 10.2632ZM47.75 13.6842V16.8658L52.7812 20.5263H54V13.6842H47.75ZM60.25 13.6842V20.5263H66.5V13.6842H60.25ZM27.4375 18.8158L44.625 30.7895V58.1579H35.25V37.6316H19.625V58.1579H10.25V30.7895L27.4375 18.8158ZM60.25 27.3684V34.2105H66.5V27.3684H60.25ZM60.25 41.0526V47.8947H66.5V41.0526H60.25Z" fill="white"/>
</g>
<defs>
<filter id="filter0_d" x="0" y="0" width="83" height="73" filterUnits="userSpaceOnUse" color-interpolation-filters="sRGB">
<feFlood flood-opacity="0" result="BackgroundImageFix"/>
<feColorMatrix in="SourceAlpha" type="matrix" values="0 0 0 0 0 0 0 0 0 0 0 0 0 0 0 0 0 0 127 0"/>
<feOffset dy="4"/>
<feGaussianBlur stdDeviation="2"/>
<feColorMatrix type="matrix" values="0 0 0 0 0 0 0 0 0 0 0 0 0 0 0 0 0 0 0.25 0"/>
<feBlend mode="normal" in2="BackgroundImageFix" result="effect1_dropShadow"/>
<feBlend mode="normal" in="SourceGraphic" in2="effect1_dropShadow" result="shape"/>
</filter>
</defs>
</svg>
