<svg width="50" height="50" viewBox="0 0 50 50" fill="none" xmlns="http://www.w3.org/2000/svg">
<path d="M8.85414 11.6875C13.0625 17.0833 20.8333 27.0833 20.8333 27.0833V39.5833C20.8333 40.7292 21.7708 41.6667 22.9166 41.6667H27.0833C28.2291 41.6667 29.1666 40.7292 29.1666 39.5833V27.0833C29.1666 27.0833 36.9166 17.0833 41.125 11.6875C41.3637 11.3799 41.5113 11.0115 41.551 10.6242C41.5906 10.2368 41.5207 9.84613 41.3492 9.49659C41.1777 9.14704 40.9115 8.85267 40.5808 8.64701C40.2502 8.44135 39.8685 8.33266 39.4791 8.33332H10.5C8.77081 8.33332 7.79164 10.3125 8.85414 11.6875Z" fill="#FF5722"/>
</svg>
