<svg width="73" height="73" viewBox="0 0 73 73" fill="none" xmlns="http://www.w3.org/2000/svg">
<g filter="url(#filter0_d)">
<path d="M40.5625 22.75H62.9062L40.5625 4.875V22.75ZM12.125 0H44.625L69 19.5V58.5C69 60.2239 68.144 61.8772 66.6202 63.0962C65.0965 64.3152 63.0299 65 60.875 65H12.125C9.97012 65 7.90349 64.3152 6.37976 63.0962C4.85602 61.8772 4 60.2239 4 58.5V6.5C4 2.8925 7.61562 0 12.125 0ZM16.1875 58.5H24.3125V39H16.1875V58.5ZM32.4375 58.5H40.5625V32.5H32.4375V58.5ZM48.6875 58.5H56.8125V45.5H48.6875V58.5Z" fill="white"/>
</g>
<defs>
<filter id="filter0_d" x="0" y="0" width="73" height="73" filterUnits="userSpaceOnUse" color-interpolation-filters="sRGB">
<feFlood flood-opacity="0" result="BackgroundImageFix"/>
<feColorMatrix in="SourceAlpha" type="matrix" values="0 0 0 0 0 0 0 0 0 0 0 0 0 0 0 0 0 0 127 0"/>
<feOffset dy="4"/>
<feGaussianBlur stdDeviation="2"/>
<feColorMatrix type="matrix" values="0 0 0 0 0 0 0 0 0 0 0 0 0 0 0 0 0 0 0.25 0"/>
<feBlend mode="normal" in2="BackgroundImageFix" result="effect1_dropShadow"/>
<feBlend mode="normal" in="SourceGraphic" in2="effect1_dropShadow" result="shape"/>
</filter>
</defs>
</svg>
