<svg width="73" height="73" viewBox="0 0 73 73" fill="none" xmlns="http://www.w3.org/2000/svg">
<g filter="url(#filter0_d)">
<path d="M25.6667 29.25H18.4444V35.75H25.6667V29.25ZM40.1111 29.25H32.8889V35.75H40.1111V29.25ZM54.5556 29.25H47.3333V35.75H54.5556V29.25ZM61.7778 6.5H58.1667V0H50.9444V6.5H22.0556V0H14.8333V6.5H11.2222C9.30677 6.5 7.46977 7.18482 6.11534 8.40381C4.76091 9.62279 4 11.2761 4 13V58.5C4 60.2239 4.76091 61.8772 6.11534 63.0962C7.46977 64.3152 9.30677 65 11.2222 65H61.7778C63.6932 65 65.5302 64.3152 66.8847 63.0962C68.2391 61.8772 69 60.2239 69 58.5V13C69 11.2761 68.2391 9.62279 66.8847 8.40381C65.5302 7.18482 63.6932 6.5 61.7778 6.5ZM61.7778 58.5H11.2222V22.75H61.7778V58.5Z" fill="white"/>
</g>
<defs>
<filter id="filter0_d" x="0" y="0" width="73" height="73" filterUnits="userSpaceOnUse" color-interpolation-filters="sRGB">
<feFlood flood-opacity="0" result="BackgroundImageFix"/>
<feColorMatrix in="SourceAlpha" type="matrix" values="0 0 0 0 0 0 0 0 0 0 0 0 0 0 0 0 0 0 127 0"/>
<feOffset dy="4"/>
<feGaussianBlur stdDeviation="2"/>
<feColorMatrix type="matrix" values="0 0 0 0 0 0 0 0 0 0 0 0 0 0 0 0 0 0 0.25 0"/>
<feBlend mode="normal" in2="BackgroundImageFix" result="effect1_dropShadow"/>
<feBlend mode="normal" in="SourceGraphic" in2="effect1_dropShadow" result="shape"/>
</filter>
</defs>
</svg>
