<svg width="50" height="54" viewBox="0 0 50 54" fill="none" xmlns="http://www.w3.org/2000/svg">
<g filter="url(#filter0_d)">
<path d="M25 41.6667C15.8334 41.6667 8.33335 34.1667 8.33335 25C8.33335 15.8333 15.8334 8.33332 25 8.33332C34.1667 8.33332 41.6667 15.8333 41.6667 25C41.6667 34.1667 34.1667 41.6667 25 41.6667ZM25 4.16666C13.5417 4.16666 4.16669 13.5417 4.16669 25C4.16669 36.4583 13.5417 45.8333 25 45.8333C36.4584 45.8333 45.8334 36.4583 45.8334 25C45.8334 13.5417 36.4584 4.16666 25 4.16666ZM22.9167 29.1667H27.0834V35.4167H33.3334V25H37.5L25 14.5833L12.5 25H16.6667V35.4167H22.9167V29.1667Z" fill="#FF5722"/>
</g>
<defs>
<filter id="filter0_d" x="-4" y="0" width="58" height="58" filterUnits="userSpaceOnUse" color-interpolation-filters="sRGB">
<feFlood flood-opacity="0" result="BackgroundImageFix"/>
<feColorMatrix in="SourceAlpha" type="matrix" values="0 0 0 0 0 0 0 0 0 0 0 0 0 0 0 0 0 0 127 0"/>
<feOffset dy="4"/>
<feGaussianBlur stdDeviation="2"/>
<feColorMatrix type="matrix" values="0 0 0 0 0 0 0 0 0 0 0 0 0 0 0 0 0 0 0.25 0"/>
<feBlend mode="normal" in2="BackgroundImageFix" result="effect1_dropShadow"/>
<feBlend mode="normal" in="SourceGraphic" in2="effect1_dropShadow" result="shape"/>
</filter>
</defs>
</svg>
