<svg width="98" height="73" viewBox="0 0 98 73" fill="none" xmlns="http://www.w3.org/2000/svg">
<g filter="url(#filter0_d)">
<path d="M49 0C52.481 0 55.8194 1.65301 58.2808 4.59539C60.7422 7.53778 62.125 11.5285 62.125 15.6897C62.125 19.8508 60.7422 23.8415 58.2808 26.7839C55.8194 29.7263 52.481 31.3793 49 31.3793C45.519 31.3793 42.1806 29.7263 39.7192 26.7839C37.2578 23.8415 35.875 19.8508 35.875 15.6897C35.875 11.5285 37.2578 7.53778 39.7192 4.59539C42.1806 1.65301 45.519 0 49 0V0ZM22.75 11.2069C24.85 11.2069 26.8 11.8793 28.4875 13.0897C27.925 19.5 29.5 25.8655 32.725 30.8414C30.85 35.1448 27.1 38.1034 22.75 38.1034C19.7663 38.1034 16.9048 36.6866 14.795 34.1645C12.6853 31.6425 11.5 28.2219 11.5 24.6552C11.5 21.0885 12.6853 17.6678 14.795 15.1458C16.9048 12.6238 19.7663 11.2069 22.75 11.2069V11.2069ZM75.25 11.2069C78.2337 11.2069 81.0952 12.6238 83.205 15.1458C85.3147 17.6678 86.5 21.0885 86.5 24.6552C86.5 28.2219 85.3147 31.6425 83.205 34.1645C81.0952 36.6866 78.2337 38.1034 75.25 38.1034C70.9 38.1034 67.15 35.1448 65.275 30.8414C68.5445 25.7957 70.0621 19.4381 69.5125 13.0897C71.2 11.8793 73.15 11.2069 75.25 11.2069V11.2069ZM24.625 57.1552C24.625 47.8759 35.5375 40.3448 49 40.3448C62.4625 40.3448 73.375 47.8759 73.375 57.1552V65H24.625V57.1552ZM4 65V58.2759C4 52.0448 11.0875 46.8 20.6875 45.2759C18.475 48.3241 17.125 52.5379 17.125 57.1552V65H4ZM94 65H80.875V57.1552C80.875 52.5379 79.525 48.3241 77.3125 45.2759C86.9125 46.8 94 52.0448 94 58.2759V65Z" fill="white"/>
</g>
<defs>
<filter id="filter0_d" x="0" y="0" width="98" height="73" filterUnits="userSpaceOnUse" color-interpolation-filters="sRGB">
<feFlood flood-opacity="0" result="BackgroundImageFix"/>
<feColorMatrix in="SourceAlpha" type="matrix" values="0 0 0 0 0 0 0 0 0 0 0 0 0 0 0 0 0 0 127 0"/>
<feOffset dy="4"/>
<feGaussianBlur stdDeviation="2"/>
<feColorMatrix type="matrix" values="0 0 0 0 0 0 0 0 0 0 0 0 0 0 0 0 0 0 0.25 0"/>
<feBlend mode="normal" in2="BackgroundImageFix" result="effect1_dropShadow"/>
<feBlend mode="normal" in="SourceGraphic" in2="effect1_dropShadow" result="shape"/>
</filter>
</defs>
</svg>
