<svg width="73" height="73" viewBox="0 0 73 73" fill="none" xmlns="http://www.w3.org/2000/svg">
<g filter="url(#filter0_d)">
<path d="M27.4657 53.4683C16.638 52.6973 10.7045 48.4399 10.7045 46.9314V39.4559C14.4925 41.2996 19.0851 42.54 24.1135 43.1434C24.1135 40.9309 24.2476 38.6849 24.8174 36.5059C19.0851 35.7684 13.9562 34.0588 10.7045 31.6787V22.2589C15.4982 24.9742 22.4373 26.7174 30.2145 26.8179C30.3151 26.7174 30.3822 26.5833 30.4827 26.4827C37.8577 19.1413 49.2553 18.1356 57.6359 23.5663V13.409C57.6359 6.00052 45.6349 0 30.8179 0C16.001 0 4 6.00052 4 13.409V46.9314C4 54.3399 16.0346 60.3404 30.8179 60.3404C31.9577 60.3404 33.0975 60.3404 34.1702 60.2398C32.8963 59.4018 31.6225 58.4631 30.4827 57.3234C29.3094 56.1166 28.3038 54.8427 27.4657 53.4683ZM30.8179 6.70449C43.7911 6.70449 50.9314 11.7329 50.9314 13.409C50.9314 15.0851 43.7911 20.1135 30.8179 20.1135C17.8448 20.1135 10.7045 15.0851 10.7045 13.409C10.7045 11.7329 17.8448 6.70449 30.8179 6.70449ZM58.6751 49.9484C60.1501 47.6354 60.9881 44.853 60.9881 41.903C60.9881 33.5224 54.2837 26.8179 45.903 26.8179C37.5224 26.8179 30.8179 33.5224 30.8179 41.903C30.8179 50.2837 37.5224 56.9881 45.903 56.9881C48.8195 56.9881 51.5683 56.1501 53.8814 54.7086L64.3404 65L69 60.3404L58.6751 49.9484ZM45.903 50.2837C43.6804 50.2837 41.5487 49.4007 39.9771 47.829C38.4054 46.2574 37.5224 44.1257 37.5224 41.903C37.5224 39.6804 38.4054 37.5487 39.9771 35.9771C41.5487 34.4054 43.6804 33.5224 45.903 33.5224C48.1257 33.5224 50.2574 34.4054 51.829 35.9771C53.4007 37.5487 54.2837 39.6804 54.2837 41.903C54.2837 44.1257 53.4007 46.2574 51.829 47.829C50.2574 49.4007 48.1257 50.2837 45.903 50.2837Z" fill="white"/>
</g>
<defs>
<filter id="filter0_d" x="0" y="0" width="73" height="73" filterUnits="userSpaceOnUse" color-interpolation-filters="sRGB">
<feFlood flood-opacity="0" result="BackgroundImageFix"/>
<feColorMatrix in="SourceAlpha" type="matrix" values="0 0 0 0 0 0 0 0 0 0 0 0 0 0 0 0 0 0 127 0"/>
<feOffset dy="4"/>
<feGaussianBlur stdDeviation="2"/>
<feColorMatrix type="matrix" values="0 0 0 0 0 0 0 0 0 0 0 0 0 0 0 0 0 0 0.25 0"/>
<feBlend mode="normal" in2="BackgroundImageFix" result="effect1_dropShadow"/>
<feBlend mode="normal" in="SourceGraphic" in2="effect1_dropShadow" result="shape"/>
</filter>
</defs>
</svg>
